<svg xmlns="http://www.w3.org/2000/svg" viewBox="0 0 520 150" role="img" aria-labelledby="title desc">
  <title id="title">Cremeni Store</title>
  <desc id="desc">Logomarca horizontal da Cremeni Store em branco e verde-limão.</desc>
  <defs>
    <linearGradient id="lime" x1="0" y1="0" x2="1" y2="1">
      <stop offset="0" stop-color="#d7ff53"/>
      <stop offset="0.48" stop-color="#a8ff00"/>
      <stop offset="1" stop-color="#78b900"/>
    </linearGradient>
  </defs>
  <g transform="translate(12 13) skewX(-12)">
    <path fill="url(#lime)" d="M25 8h118l-16 25H67c-11 0-19 4-24 12l-18 29c-8 13-1 26 14 26h50l11-18H58l16-25h86l-38 61H25C3 118-9 97 3 77l28-45C39 18 51 8 68 8z"/>
    <path fill="#f4f4f4" d="M73 43h82l-15 24H85z" opacity=".96"/>
  </g>
  <g transform="translate(188 26)">
    <text x="0" y="54" fill="#ffffff" font-family="Arial Black,Arial,sans-serif" font-size="48" font-style="italic" font-weight="900" letter-spacing="2">CREMENI</text>
    <text x="131" y="91" fill="#a8ff00" font-family="Arial,Helvetica,sans-serif" font-size="22" font-weight="800" letter-spacing="12">STORE</text>
    <text x="1" y="120" fill="#c7c7c7" font-family="Arial,Helvetica,sans-serif" font-size="11" font-weight="700" letter-spacing="3">SUPERE • EVOLUA • CONQUISTE</text>
  </g>
</svg>